<svg aria-hidden="true" style="position: absolute; width: 0; height: 0; overflow: hidden;" version="1.1" xmlns="http://www.w3.org/2000/svg" xmlns:xlink="http://www.w3.org/1999/xlink">
<defs>
<symbol id="calendar" viewBox="0 0 32 32">
<path d="M10.187 1.578c-0.13 0.061-0.242 0.137-0.34 0.227l0.001-0.001c-0.299 0.285-0.326 0.389-0.355 1.397l-0.026 0.933-1.814 0.030c-2 0.032-2.054 0.040-2.752 0.405-0.961 0.51-1.674 1.381-1.963 2.428l-0.006 0.028c-0.106 0.408-0.107 0.594-0.106 10.315 0.002 9.67 0.003 9.907 0.106 10.309 0.338 1.314 1.44 2.418 2.755 2.754 0.402 0.102 0.632 0.106 10.314 0.106s9.912-0.003 10.314-0.106c1.315-0.336 2.418-1.44 2.755-2.754 0.102-0.402 0.104-0.638 0.106-10.309 0.002-9.722 0-9.907-0.106-10.315-0.296-1.075-1.008-1.946-1.948-2.446l-0.021-0.010c-0.698-0.365-0.752-0.373-2.752-0.405l-1.814-0.030-0.026-0.933c-0.029-1.008-0.056-1.112-0.355-1.397-0.217-0.193-0.504-0.311-0.818-0.311s-0.602 0.118-0.82 0.312l0.001-0.001c-0.301 0.285-0.326 0.389-0.355 1.397l-0.027 0.933h-8.266l-0.027-0.933c-0.029-1.008-0.054-1.112-0.355-1.397-0.224-0.193-0.518-0.31-0.839-0.31-0.165 0-0.322 0.031-0.467 0.087l0.009-0.003zM9.493 7.467c0.029 1.008 0.056 1.112 0.355 1.397 0.55 0.523 1.504 0.368 1.877-0.304 0.069-0.126 0.094-0.36 0.115-1.093l0.027-0.934h8.266l0.027 0.934c0.029 1.008 0.054 1.112 0.355 1.397 0.217 0.193 0.504 0.311 0.818 0.311s0.602-0.118 0.82-0.312l-0.001 0.001c0.299-0.285 0.326-0.389 0.355-1.397l0.026-0.934h1.547c1.51 0.002 1.554 0.003 1.826 0.126 0.342 0.155 0.658 0.488 0.792 0.837 0.094 0.245 0.102 0.427 0.102 2.451v2.186h-21.6v-2.16c0-2.459 0.008-2.514 0.381-2.93 0.438-0.488 0.632-0.528 2.472-0.518l1.414 0.008 0.026 0.934zM26.8 20.72c0 5.957-0.003 6.197-0.102 6.45-0.155 0.37-0.433 0.664-0.782 0.834l-0.009 0.004-0.278 0.125h-9.6c-9.315 0-9.608-0.003-9.864-0.101-0.37-0.156-0.663-0.435-0.833-0.784l-0.004-0.010-0.126-0.278-0.014-6.158c-0.008-3.387-0.003-6.189 0.011-6.227 0.022-0.054 2.058-0.066 10.814-0.054l10.789 0.013v6.187z"></path>
</symbol>
<symbol id="camper1" viewBox="0 0 32 32">
<path d="M12.106 4.85c-0.25 0.077-0.453 0.208-0.666 0.43-0.118 0.122-0.355 0.346-0.53 0.498l-0.316 0.276-9.288 0.053-0.248 0.122c-0.378 0.186-0.715 0.513-0.882 0.853l-0.15 0.305v16.594l0.15 0.227c0.104 0.157 0.235 0.266 0.426 0.355l0.277 0.129 4.32 0.002 0.119 0.392c0.484 1.594 2.334 2.5 3.954 1.937 0.889-0.31 1.65-1.067 1.895-1.884l0.114-0.379c0.017-0.053 1.202-0.066 5.696-0.066h5.674l0.033 0.204c0.092 0.577 0.74 1.457 1.336 1.816 0.579 0.348 0.947 0.451 1.632 0.456 0.508 0.003 0.678-0.018 0.986-0.121 0.96-0.32 1.698-1.069 1.996-2.013l0.006-0.022 0.092-0.294 1.193-0.029c0.714-0.017 1.25-0.053 1.334-0.090 0.231-0.1 0.536-0.4 0.64-0.628 0.089-0.197 0.097-0.407 0.098-2.64 0-2.579-0.010-2.699-0.266-3.229-0.184-0.378-0.592-0.786-0.998-0.998-0.198-0.103-0.748-0.338-1.222-0.522l-0.86-0.334-1.027-2.353c-0.565-1.294-1.084-2.452-1.154-2.574-0.16-0.276-0.574-0.667-0.862-0.814-0.488-0.249-0.715-0.271-2.714-0.271h-1.882v-0.694h7.070l0.238-0.12c0.47-0.238 0.704-0.826 0.512-1.285-0.118-0.282-1.652-2.519-1.914-2.791-0.155-0.147-0.333-0.272-0.528-0.367l-0.012-0.005-0.326-0.151-6.907-0.009c-3.798-0.005-6.966 0.010-7.040 0.032zM26.054 5.911c0.186 0.114 1.864 2.54 1.813 2.622-0.021 0.034-1.347 0.053-3.766 0.053-2.458 0-3.769 0.019-3.836 0.055-0.276 0.147-0.264-0.202-0.264 7.702v7.336h-8.68l-0.122-0.378c-0.395-1.23-1.655-2.133-2.97-2.128-1.294 0.005-2.546 0.914-2.91 2.113l-0.119 0.392-4.186 0.001v-2.24h0.8v-0.96h-0.8v-6.406c0-6.403 0-6.406 0.111-6.605 0.062-0.109 0.188-0.244 0.28-0.3 0.162-0.098 0.362-0.103 4.835-0.129l4.666-0.026 0.24-0.143c0.132-0.078 0.444-0.349 0.693-0.6l0.452-0.457h6.801c6.498 0 6.809 0.005 6.962 0.098zM13.538 9.974c-0.245 0.13-0.511 0.448-0.579 0.692-0.032 0.116-0.052 2.246-0.052 5.583l-0.001 5.395 0.138 0.165 0.138 0.164h4.944l0.299-0.258v-11.022l-0.114-0.214c-0.118-0.231-0.303-0.413-0.529-0.524l-0.007-0.003c-0.148-0.074-0.426-0.086-2.106-0.084-1.808 0.002-1.949 0.010-2.131 0.106zM17.408 10.911c0.018 0.046 0.032 0.814 0.032 1.706v1.622h-3.52v-1.671c0-0.919 0.016-1.687 0.035-1.706s0.798-0.036 1.728-0.036c1.494 0 1.696 0.010 1.725 0.085zM25.114 11.386c0.165 0.092 0.344 0.245 0.42 0.36 0.13 0.198 1.932 4.267 1.932 4.365 0 0.031-1.228 0.045-3.213 0.037l-3.214-0.014-0.014-2.47-0.014-2.47 3.814 0.034 0.288 0.159zM17.427 18.12l0.014 2.894h-3.521v-5.815l3.494 0.028 0.014 2.894zM29.121 17.494c1.135 0.439 1.198 0.47 1.43 0.699 0.358 0.353 0.406 0.514 0.426 1.447l0.018 0.84h-0.81v0.96h0.802l-0.014 1.106-0.014 1.107h-2.219l-0.132-0.391c-0.090-0.257-0.193-0.477-0.317-0.684l0.009 0.017c-0.254-0.396-0.774-0.853-1.221-1.073-1.235-0.608-2.63-0.383-3.591 0.579-0.401 0.402-0.741 0.983-0.803 1.374l-0.033 0.205h-1.639v-6.56h7.142l0.966 0.374zM9.12 22.354c0.446 0.209 0.768 0.526 0.991 0.977 0.176 0.358 0.193 0.43 0.193 0.849 0 0.398-0.021 0.504-0.161 0.802-0.292 0.635-0.874 1.093-1.571 1.206l-0.012 0.002c-0.629 0.11-1.342-0.135-1.82-0.626-0.479-0.493-0.678-1.306-0.478-1.944 0.19-0.6 0.706-1.131 1.311-1.348 0.378-0.136 1.169-0.094 1.546 0.082zM26.588 22.371c0.387 0.19 0.766 0.558 0.967 0.942 0.14 0.265 0.151 0.333 0.151 0.874 0 0.566-0.006 0.599-0.181 0.92-0.81 1.495-2.968 1.46-3.711-0.060-0.194-0.397-0.242-0.99-0.116-1.426 0.171-0.589 0.666-1.107 1.272-1.331 0.442-0.164 1.194-0.126 1.618 0.082z"></path>
</symbol>
<symbol id="camper2" viewBox="0 0 32 32">
<path d="M12.106 4.85c-0.25 0.077-0.453 0.208-0.666 0.43-0.118 0.122-0.355 0.346-0.53 0.498l-0.316 0.276-9.288 0.053-0.248 0.122c-0.378 0.186-0.715 0.513-0.882 0.853l-0.15 0.305v16.594l0.15 0.227c0.104 0.157 0.235 0.266 0.426 0.355l0.277 0.129 4.32 0.002 0.119 0.392c0.484 1.594 2.334 2.5 3.954 1.937 0.889-0.31 1.65-1.067 1.895-1.884l0.114-0.379c0.017-0.053 1.202-0.066 5.696-0.066h5.674l0.033 0.204c0.092 0.577 0.74 1.457 1.336 1.816 0.579 0.348 0.947 0.451 1.632 0.456 0.508 0.003 0.678-0.018 0.986-0.121 0.96-0.32 1.698-1.069 1.996-2.013l0.006-0.022 0.092-0.294 1.193-0.029c0.714-0.017 1.25-0.053 1.334-0.090 0.231-0.1 0.536-0.4 0.64-0.628 0.089-0.197 0.097-0.407 0.098-2.64 0-2.579-0.010-2.699-0.266-3.229-0.184-0.378-0.592-0.786-0.998-0.998-0.198-0.103-0.748-0.338-1.222-0.522l-0.86-0.334-1.027-2.353c-0.565-1.294-1.084-2.452-1.154-2.574-0.16-0.276-0.574-0.667-0.862-0.814-0.488-0.249-0.715-0.271-2.714-0.271h-1.882v-0.694h7.070l0.238-0.12c0.47-0.238 0.704-0.826 0.512-1.285-0.118-0.282-1.652-2.519-1.914-2.791-0.155-0.147-0.333-0.272-0.528-0.367l-0.012-0.005-0.326-0.151-6.907-0.009c-3.798-0.005-6.966 0.010-7.040 0.032zM26.054 5.911c0.186 0.114 1.864 2.54 1.813 2.622-0.021 0.034-1.347 0.053-3.766 0.053-2.458 0-3.769 0.019-3.836 0.055-0.276 0.147-0.264-0.202-0.264 7.702v7.336h-8.68l-0.122-0.378c-0.395-1.23-1.655-2.133-2.97-2.128-1.294 0.005-2.546 0.914-2.91 2.113l-0.119 0.392-4.186 0.001v-2.24h0.8v-0.96h-0.8v-6.406c0-6.403 0-6.406 0.111-6.605 0.062-0.109 0.188-0.244 0.28-0.3 0.162-0.098 0.362-0.103 4.835-0.129l4.666-0.026 0.24-0.143c0.132-0.078 0.444-0.349 0.693-0.6l0.452-0.457h6.801c6.498 0 6.809 0.005 6.962 0.098zM3.334 9.967c-0.278 0.128-0.471 0.314-0.609 0.584-0.106 0.208-0.111 0.298-0.111 1.994l0.001 1.775 0.16 0.279c0.118 0.206 0.234 0.322 0.44 0.44l0.279 0.16h6.933l0.279-0.16c0.206-0.118 0.322-0.234 0.44-0.44l0.16-0.279 0.001-1.775c0-1.64-0.007-1.791-0.101-1.974-0.136-0.265-0.35-0.474-0.611-0.6l-0.008-0.003c-0.2-0.092-0.429-0.098-3.626-0.098-3.203 0-3.426 0.006-3.626 0.098zM10.264 10.946c0.070 0.1 0.082 0.344 0.082 1.588s-0.013 1.487-0.082 1.588l-0.083 0.118h-6.442l-0.083-0.118c-0.070-0.101-0.082-0.345-0.082-1.588s0.013-1.488 0.082-1.588l0.083-0.119h6.442l0.083 0.119zM25.114 11.386c0.165 0.092 0.344 0.245 0.42 0.36 0.13 0.198 1.932 4.267 1.932 4.365 0 0.031-1.228 0.045-3.213 0.037l-3.214-0.014-0.014-2.47-0.014-2.47 3.814 0.034 0.288 0.159zM29.121 17.494c1.135 0.439 1.198 0.47 1.43 0.699 0.358 0.353 0.406 0.514 0.426 1.447l0.018 0.84h-0.81v0.96h0.802l-0.014 1.106-0.014 1.107h-2.219l-0.132-0.391c-0.090-0.257-0.193-0.477-0.317-0.684l0.009 0.017c-0.254-0.396-0.774-0.853-1.221-1.073-1.235-0.608-2.63-0.383-3.591 0.579-0.401 0.402-0.741 0.983-0.803 1.374l-0.033 0.205h-1.639v-6.56h7.142l0.966 0.374zM9.12 22.354c0.446 0.209 0.768 0.526 0.991 0.977 0.176 0.358 0.193 0.43 0.193 0.849 0 0.398-0.021 0.504-0.161 0.802-0.292 0.635-0.874 1.093-1.571 1.206l-0.012 0.002c-0.629 0.11-1.342-0.135-1.82-0.626-0.479-0.493-0.678-1.306-0.478-1.944 0.19-0.6 0.706-1.131 1.311-1.348 0.378-0.136 1.169-0.094 1.546 0.082zM26.588 22.371c0.387 0.19 0.766 0.558 0.967 0.942 0.14 0.265 0.151 0.333 0.151 0.874 0 0.566-0.006 0.599-0.181 0.92-0.81 1.495-2.968 1.46-3.711-0.060-0.194-0.397-0.242-0.99-0.116-1.426 0.171-0.589 0.666-1.107 1.272-1.331 0.442-0.164 1.194-0.126 1.618 0.082z"></path>
</symbol>
<symbol id="camper3" viewBox="0 0 32 32">
<path d="M12.106 4.85c-0.25 0.077-0.453 0.208-0.666 0.43-0.118 0.122-0.355 0.346-0.53 0.498l-0.316 0.276-9.288 0.053-0.248 0.122c-0.378 0.186-0.715 0.513-0.882 0.853l-0.15 0.305v16.594l0.15 0.227c0.104 0.157 0.235 0.266 0.426 0.355l0.277 0.129 4.32 0.002 0.119 0.392c0.484 1.594 2.334 2.5 3.954 1.937 0.889-0.31 1.65-1.067 1.895-1.884l0.114-0.379c0.017-0.053 1.202-0.066 5.696-0.066h5.674l0.033 0.204c0.092 0.577 0.74 1.457 1.336 1.816 0.579 0.348 0.947 0.451 1.632 0.456 0.508 0.003 0.678-0.018 0.986-0.121 0.96-0.32 1.698-1.069 1.996-2.013l0.006-0.022 0.092-0.294 1.193-0.029c0.714-0.017 1.25-0.053 1.334-0.090 0.231-0.1 0.536-0.4 0.64-0.628 0.089-0.197 0.097-0.407 0.098-2.64 0-2.579-0.010-2.699-0.266-3.229-0.184-0.378-0.592-0.786-0.998-0.998-0.198-0.103-0.748-0.338-1.222-0.522l-0.86-0.334-1.027-2.353c-0.565-1.294-1.084-2.452-1.154-2.574-0.16-0.276-0.574-0.667-0.862-0.814-0.488-0.249-0.715-0.271-2.714-0.271h-1.882v-0.694h7.070l0.238-0.12c0.47-0.238 0.704-0.826 0.512-1.285-0.118-0.282-1.652-2.519-1.914-2.791-0.155-0.147-0.333-0.272-0.528-0.367l-0.012-0.005-0.326-0.151-6.907-0.009c-3.798-0.005-6.966 0.010-7.040 0.032zM26.054 5.911c0.186 0.114 1.864 2.54 1.813 2.622-0.021 0.034-1.347 0.053-3.766 0.053-2.458 0-3.769 0.019-3.836 0.055-0.276 0.147-0.264-0.202-0.264 7.702v7.336h-8.68l-0.122-0.378c-0.395-1.23-1.655-2.133-2.97-2.128-1.294 0.005-2.546 0.914-2.91 2.113l-0.119 0.392-4.186 0.001v-2.24h0.8v-0.96h-0.8v-6.406c0-6.403 0-6.406 0.111-6.605 0.062-0.109 0.188-0.244 0.28-0.3 0.162-0.098 0.362-0.103 4.835-0.129l4.666-0.026 0.24-0.143c0.132-0.078 0.444-0.349 0.693-0.6l0.452-0.457h6.801c6.498 0 6.809 0.005 6.962 0.098zM3.334 9.967c-0.278 0.128-0.471 0.314-0.609 0.584-0.106 0.208-0.111 0.298-0.111 1.994l0.001 1.775 0.16 0.279c0.118 0.206 0.234 0.322 0.44 0.44l0.279 0.16h6.933l0.279-0.16c0.206-0.118 0.322-0.234 0.44-0.44l0.16-0.279 0.001-1.775c0-1.64-0.007-1.791-0.101-1.974-0.136-0.265-0.35-0.474-0.611-0.6l-0.008-0.003c-0.2-0.092-0.429-0.098-3.626-0.098-3.203 0-3.426 0.006-3.626 0.098zM13.538 9.974c-0.245 0.13-0.511 0.448-0.579 0.692-0.032 0.116-0.052 2.246-0.052 5.583l-0.001 5.395 0.138 0.165 0.138 0.164h4.944l0.299-0.258v-11.022l-0.114-0.214c-0.118-0.231-0.303-0.413-0.529-0.524l-0.007-0.003c-0.148-0.074-0.426-0.086-2.106-0.084-1.808 0.002-1.949 0.010-2.131 0.106zM10.264 10.946c0.070 0.1 0.082 0.344 0.082 1.588s-0.013 1.487-0.082 1.588l-0.083 0.118h-6.442l-0.083-0.118c-0.070-0.101-0.082-0.345-0.082-1.588s0.013-1.488 0.082-1.588l0.083-0.119h6.442l0.083 0.119zM17.408 10.911c0.018 0.046 0.032 0.814 0.032 1.706v1.622h-3.52v-1.671c0-0.919 0.016-1.687 0.035-1.706s0.798-0.036 1.728-0.036c1.494 0 1.696 0.010 1.725 0.085zM25.114 11.386c0.165 0.092 0.344 0.245 0.42 0.36 0.13 0.198 1.932 4.267 1.932 4.365 0 0.031-1.228 0.045-3.213 0.037l-3.214-0.014-0.014-2.47-0.014-2.47 3.814 0.034 0.288 0.159zM17.427 18.12l0.014 2.894h-3.521v-5.815l3.494 0.028 0.014 2.894zM29.121 17.494c1.135 0.439 1.198 0.47 1.43 0.699 0.358 0.353 0.406 0.514 0.426 1.447l0.018 0.84h-0.81v0.96h0.802l-0.014 1.106-0.014 1.107h-2.219l-0.132-0.391c-0.090-0.257-0.193-0.477-0.317-0.684l0.009 0.017c-0.254-0.396-0.774-0.853-1.221-1.073-1.235-0.608-2.63-0.383-3.591 0.579-0.401 0.402-0.741 0.983-0.803 1.374l-0.033 0.205h-1.639v-6.56h7.142l0.966 0.374zM9.12 22.354c0.446 0.209 0.768 0.526 0.991 0.977 0.176 0.358 0.193 0.43 0.193 0.849 0 0.398-0.021 0.504-0.161 0.802-0.292 0.635-0.874 1.093-1.571 1.206l-0.012 0.002c-0.629 0.11-1.342-0.135-1.82-0.626-0.479-0.493-0.678-1.306-0.478-1.944 0.19-0.6 0.706-1.131 1.311-1.348 0.378-0.136 1.169-0.094 1.546 0.082zM26.588 22.371c0.387 0.19 0.766 0.558 0.967 0.942 0.14 0.265 0.151 0.333 0.151 0.874 0 0.566-0.006 0.599-0.181 0.92-0.81 1.495-2.968 1.46-3.711-0.060-0.194-0.397-0.242-0.99-0.116-1.426 0.171-0.589 0.666-1.107 1.272-1.331 0.442-0.164 1.194-0.126 1.618 0.082z"></path>
</symbol>
<symbol id="automatic" viewBox="0 0 32 32">
<path d="M5.666 2.934c-1.301 0.341-2.4 1.448-2.734 2.752-0.068 0.295-0.107 0.633-0.107 0.981s0.039 0.686 0.113 1.011l-0.006-0.030c0.304 1.116 1.067 2.014 2.068 2.492l0.023 0.010 0.462 0.222 0.018 1.818 0.018 1.816 0.2 0.405c0.264 0.533 0.67 0.939 1.203 1.202l0.405 0.2 3.472 0.054 0.027 4.402 0.026 4.403 0.2 0.405c0.264 0.533 0.67 0.939 1.203 1.203l0.405 0.2 2.43 0.016c1.664 0.011 2.493-0.002 2.63-0.042 0.451-0.133 0.782-0.6 0.784-1.109 0.001-0.014 0.001-0.031 0.001-0.047 0-0.458-0.27-0.853-0.66-1.035l-0.007-0.003c-0.197-0.091-0.384-0.099-2.357-0.099-1.878-0.002-2.152-0.011-2.226-0.086-0.077-0.075-0.083-0.506-0.072-4.146l0.014-4.062 2.267-0.027c2.478-0.029 2.413-0.021 2.73-0.355 0.429-0.451 0.408-1.259-0.043-1.682-0.346-0.325-0.101-0.31-5.349-0.31-4.29 0-4.806-0.008-4.882-0.083-0.072-0.072-0.083-0.288-0.082-1.56l0.002-1.477 0.466-0.222c1.026-0.487 1.79-1.385 2.087-2.475l0.006-0.027c0.068-0.295 0.107-0.633 0.107-0.981s-0.039-0.686-0.113-1.011l0.006 0.030c-0.373-1.344-1.41-2.382-2.726-2.749l-0.028-0.007c-0.296-0.066-0.635-0.104-0.984-0.104-0.354 0-0.699 0.039-1.030 0.113l0.031-0.006zM7.197 5.318c0.531 0.189 0.92 0.762 0.92 1.35 0 0.004 0 0.008 0 0.013 0 0.786-0.638 1.424-1.424 1.424-0.009 0-0.018-0-0.027-0l0.001 0c-1 0-1.678-0.934-1.384-1.909 0.085-0.283 0.419-0.672 0.702-0.816 0.406-0.208 0.754-0.226 1.211-0.062zM22.16 9.595c-0.138 0.067-0.255 0.151-0.357 0.251l0-0c-0.318 0.341-0.31 0.216-0.309 4.165 0.002 3.405 0.006 3.627 0.101 3.829 0.4 0.867 1.662 0.899 2.13 0.053 0.069-0.125 0.094-0.36 0.115-1.093l0.027-0.933 0.773-0.032c1.122-0.046 1.589-0.24 2.294-0.95 0.438-0.443 0.742-0.974 0.848-1.488 0.035-0.218 0.055-0.469 0.055-0.725 0-0.26-0.021-0.514-0.060-0.763l0.004 0.027c-0.226-1.093-1.291-2.158-2.384-2.384-0.163-0.034-0.861-0.058-1.653-0.058-1.221 0.002-1.394 0.013-1.584 0.101zM25.075 11.989c0.227 0.144 0.375 0.393 0.375 0.678 0 0.286-0.15 0.537-0.376 0.679l-0.003 0.002c-0.152 0.094-0.269 0.114-0.693 0.117l-0.51 0.003-0.016-0.744c-0.004-0.088-0.007-0.192-0.007-0.296 0-0.185 0.008-0.368 0.023-0.549l-0.002 0.024c0.048-0.125 0.976-0.058 1.21 0.086zM22.16 21.595c-0.138 0.067-0.255 0.151-0.357 0.251l0-0c-0.315 0.336-0.31 0.282-0.309 3.499 0.002 2.755 0.008 2.962 0.101 3.162 0.124 0.263 0.335 0.468 0.596 0.581l0.008 0.003c0.318 0.133 2.234 0.117 2.782-0.022 1.344-0.373 2.381-1.411 2.747-2.728l0.007-0.028c0.144-0.558 0.144-1.403 0-1.962-0.372-1.344-1.41-2.381-2.726-2.747l-0.027-0.007c-0.346-0.088-0.589-0.106-1.509-0.104-0.955 0.002-1.126 0.014-1.312 0.101zM24.587 24.010c0.517 0.221 0.864 0.754 0.864 1.326 0 0.752-0.594 1.389-1.344 1.446l-0.24 0.018-0.014-1.413c-0.005-0.17-0.007-0.37-0.007-0.57 0-0.32 0.007-0.638 0.020-0.955l-0.002 0.045c0.035-0.090 0.395-0.038 0.723 0.102z"></path>
</symbol>
<symbol id="bed" viewBox="0 0 32 32">
<path d="M7.526 5.016c-1.166 0.306-2.214 1.36-2.514 2.531-0.101 0.394-0.106 0.592-0.106 3.605v3.189l-0.278 0.141c-0.997 0.499-1.885 1.477-2.35 2.586-0.381 0.906-0.374 0.811-0.397 5.17-0.024 4.333-0.035 4.171 0.317 4.531 0.243 0.25 0.445 0.336 0.784 0.339 0.011 0 0.023 0.001 0.036 0.001 0.295 0 0.563-0.115 0.762-0.302l-0.001 0.001c0.222-0.202 0.293-0.41 0.328-0.96 0.029-0.464 0.048-0.539 0.155-0.627 0.118-0.096 0.486-0.099 11.738-0.099s11.619 0.003 11.738 0.099c0.107 0.088 0.126 0.163 0.155 0.627 0.035 0.55 0.106 0.758 0.328 0.96 0.227 0.206 0.485 0.304 0.797 0.301 0.014 0.001 0.030 0.001 0.046 0.001 0.295 0 0.559-0.131 0.737-0.339l0.001-0.001c0.352-0.36 0.341-0.2 0.317-4.533-0.024-4.355-0.018-4.266-0.397-5.168-0.466-1.109-1.354-2.086-2.35-2.586l-0.278-0.141v-3.189c0-3.013-0.005-3.211-0.106-3.605-0.302-1.182-1.352-2.232-2.534-2.534-0.408-0.104-0.59-0.106-8.475-0.102-7.789 0.002-8.070 0.005-8.451 0.106zM24.066 7.245c0.299 0.147 0.654 0.531 0.742 0.802 0.074 0.226 0.133 3.443 0.062 3.413-0.845-0.383-1.009-0.464-1.172-0.545l0.674 0.303c-0.231-0.117-0.499-0.213-0.78-0.274l-0.023-0.004c-0.557-0.093-5.792-0.078-6.243 0.018-0.427 0.103-0.802 0.274-1.134 0.503l0.011-0.007-0.202 0.133-0.254-0.163c-0.338-0.23-0.737-0.399-1.167-0.483l-0.020-0.003c-0.478-0.077-5.666-0.075-6.13 0.003-0.304 0.066-0.572 0.162-0.823 0.287l0.020-0.009-0.494 0.24c-0.059 0.027-0.048-2.867 0.014-3.197 0.111-0.53 0.505-0.947 1.014-1.089l0.010-0.002c0.226-0.054 1.835-0.066 7.962-0.059l7.68 0.010 0.253 0.125zM14.373 13.219c0.248 0.114 0.315 0.184 0.427 0.451l0.082 0.197h-6.773l0.056-0.147c0.106-0.228 0.28-0.41 0.496-0.522l0.006-0.003c0.126-0.056 0.715-0.072 2.826-0.072 2.467 0 2.683 0.006 2.88 0.096zM23.322 13.194c0.228 0.111 0.408 0.295 0.511 0.52l0.003 0.007 0.056 0.147h-6.773l0.082-0.197c0.112-0.267 0.179-0.338 0.427-0.451 0.197-0.090 0.416-0.098 2.867-0.098 2.139-0.002 2.69 0.013 2.827 0.072zM25.523 16.165c0.702 0.126 1.499 0.666 1.893 1.28 0.096 0.149 0.235 0.43 0.31 0.626l0.139 0.357 0.016 2.226 0.018 2.227h-23.792v-2.043c0-1.227 0.022-2.17 0.058-2.36 0.205-1.133 1.238-2.139 2.395-2.333 0.074-0.013 4.299-0.026 9.39-0.030 6.403-0.005 9.354 0.011 9.573 0.051z"></path>
</symbol>
<symbol id="kitchen" viewBox="0 0 32 32">
<path d="M24.827 2.926c-0.269 0.123-1.811 1.69-2.608 2.646-2.163 2.6-3.542 5.23-4.184 7.974-0.358 1.533-0.491 2.762-0.526 4.91-0.032 1.904-0.021 1.997 0.264 2.323 0.336 0.382 0.173 0.363 3.427 0.392l2.933 0.027v1.6l-0.269 0.034c-0.289 0.021-0.544 0.151-0.727 0.348l-0.001 0.001c-0.307 0.323-0.309 0.342-0.309 2.829 0.002 2.107 0.010 2.299 0.101 2.496 0.069 0.137 0.152 0.255 0.252 0.357l-0-0c0.293 0.274 0.466 0.309 1.499 0.309 1.046-0.002 1.23-0.045 1.518-0.352 0.334-0.357 0.31 0.645 0.309-12.832-0.002-11.842-0.005-12.29-0.101-12.496-0.202-0.402-0.611-0.672-1.083-0.672-0.179 0-0.349 0.039-0.502 0.109l0.008-0.003zM6.16 4.259c-0.284 0.144-0.502 0.384-0.612 0.678l-0.003 0.009c-0.042 0.139-0.053 0.979-0.038 2.762 0.022 2.827 0.018 2.789 0.398 3.691 0.574 1.362 1.934 2.557 3.322 2.92l0.24 0.062 0.026 7.010c0.030 7.731 0.002 7.138 0.355 7.474 0.217 0.193 0.504 0.311 0.818 0.311s0.602-0.118 0.82-0.312l-0.001 0.001c0.354-0.336 0.326 0.258 0.355-7.474l0.027-7.010 0.24-0.062c1.386-0.363 2.746-1.558 3.32-2.92 0.381-0.902 0.378-0.864 0.4-3.691 0.014-1.782 0.002-2.622-0.040-2.762-0.112-0.302-0.329-0.543-0.606-0.683l-0.007-0.003c-0.146-0.063-0.315-0.099-0.493-0.099-0.319 0-0.611 0.117-0.835 0.31l0.002-0.001c-0.336 0.32-0.325 0.235-0.358 2.918-0.035 2.693-0.038 2.72-0.381 3.323-0.254 0.45-0.987 1.13-1.214 1.13-0.037 0-0.054-1.122-0.054-3.389 0-2.942-0.011-3.414-0.083-3.586-0.392-0.941-1.787-0.941-2.181 0-0.072 0.171-0.083 0.643-0.083 3.586 0 2.267-0.018 3.389-0.054 3.389-0.227 0-0.958-0.68-1.214-1.13-0.342-0.603-0.346-0.63-0.379-3.323-0.034-2.683-0.024-2.598-0.36-2.918-0.222-0.192-0.513-0.308-0.832-0.308-0.178 0-0.347 0.036-0.501 0.102l0.008-0.003zM24.136 18.76c-0.021 0.051-0.496 0.067-2.131 0.067-1.158 0-2.114-0.019-2.125-0.040-0.042-0.086 0.066-2.118 0.146-2.742 0.424-3.293 1.589-5.96 3.76-8.602l0.347-0.424 0.014 5.837c0.008 3.211 0.002 5.867-0.011 5.904z"></path>
</symbol>
<symbol id="location" viewBox="0 0 32 32">
<path d="M14.992 0.173l-0.624 0.072c-3.318 0.381-6.52 2.17-8.667 4.843-1.797 2.231-2.884 5.099-2.884 8.221 0 0.767 0.066 1.518 0.191 2.249l-0.011-0.078c0.774 4.619 4.195 9.605 9.763 14.232 1.158 0.963 2.434 1.912 2.781 2.069 0.136 0.055 0.294 0.086 0.459 0.086s0.323-0.032 0.468-0.089l-0.009 0.003c0.49-0.222 2.507-1.789 3.933-3.053 2.304-2.043 4.355-4.35 5.76-6.48 2.459-3.723 3.41-7.262 2.901-10.8-0.645-4.389-3.38-8.023-7.145-9.903l-0.076-0.034c-1.169-0.604-2.529-1.044-3.965-1.244l-0.067-0.008c-0.456-0.069-2.438-0.13-2.808-0.086zM17.142 2.595c4.266 0.479 7.751 3.375 9.078 7.269l0.023 0.076c1.162 3.496 0.493 7.045-2.059 10.939-1.477 2.256-3.885 4.851-6.504 7.011-0.854 0.706-1.618 1.293-1.68 1.293s-0.826-0.587-1.68-1.293c-1.018-0.842-1.934-1.681-2.806-2.564l-0.004-0.004c-3.57-3.573-5.672-7.118-6.189-10.443-0.461-2.954 0.434-6.102 2.411-8.486 1.723-2.078 4.35-3.49 7.067-3.797 0.354-0.029 0.766-0.045 1.182-0.045 0.408 0 0.813 0.016 1.214 0.047l-0.053-0.003zM15.056 8.23c-1.95 0.355-3.555 1.846-4.082 3.795-0.115 0.429-0.13 0.562-0.13 1.294-0.002 0.68 0.014 0.883 0.101 1.224 0.474 1.908 1.947 3.381 3.818 3.847l0.036 0.008c0.589 0.149 1.811 0.149 2.4 0 1.907-0.474 3.381-1.947 3.847-3.818l0.008-0.036c0.086-0.341 0.102-0.544 0.101-1.224 0-0.733-0.014-0.866-0.13-1.294-0.53-1.963-2.139-3.451-4.107-3.795-0.28-0.040-0.603-0.064-0.931-0.064s-0.651 0.023-0.968 0.068l0.036-0.004zM16.648 10.616c0.382 0.080 0.888 0.347 1.208 0.637 0.618 0.56 0.928 1.248 0.928 2.059 0 0.837-0.242 1.427-0.816 2-0.571 0.568-1.17 0.816-1.968 0.816s-1.397-0.248-1.968-0.816c-0.574-0.573-0.816-1.163-0.816-2 0-0.797 0.307-1.493 0.898-2.032 0.702-0.642 1.563-0.867 2.534-0.664z"></path>
</symbol>
<symbol id="star" viewBox="0 0 32 32">
<path fill="#ffc531" style="fill: var(--color1, #ffc531)" d="M14.72 8.558c-0.69 1.31-1.34 2.516-1.444 2.678-0.38 0.588-1.086 1.13-1.776 1.36-0.144 0.048-1.498 0.302-3.008 0.564-1.512 0.262-2.76 0.49-2.774 0.504s0.666 0.738 1.514 1.608c2.314 2.372 2.578 2.668 2.806 3.12 0.248 0.496 0.36 0.968 0.36 1.514 0 0.25-0.164 1.562-0.392 3.148-0.049 0.186-0.184 1.12-0.308 2.056l-0.074 0.678c0.008 0.008 1.188-0.56 2.622-1.262 1.708-0.836 2.728-1.306 2.958-1.362 0.448-0.108 1.144-0.108 1.592 0 0.23 0.056 1.25 0.526 2.958 1.362 1.434 0.702 2.614 1.27 2.622 1.262 0.006-0.008-0.164-1.226-0.38-2.708-0.24-1.648-0.392-2.87-0.394-3.146 0-0.566 0.108-1.036 0.354-1.534 0.22-0.446 0.49-0.748 2.812-3.128 0.848-0.87 1.528-1.594 1.514-1.608-0.336-0.088-1.277-0.264-2.222-0.426l-0.552-0.078c-1.419-0.228-2.438-0.425-3.449-0.644l0.441 0.080c-0.736-0.264-1.344-0.737-1.768-1.346l-0.008-0.012c-0.251-0.405-0.731-1.282-1.198-2.167l-0.246-0.513c-0.635-1.25-1.061-2.031-1.499-2.803l0.219 0.419c-0.014 0-0.59 1.074-1.28 2.384z"></path>
</symbol>
<symbol id="closeBtn" viewBox="0 0 32 32">
<path d="M7.468 6.599c-0.329 0.116-0.757 0.554-0.872 0.891-0.054 0.153-0.086 0.33-0.086 0.514 0 0.181 0.030 0.355 0.086 0.517l-0.003-0.011c0.079 0.239 0.415 0.592 3.693 3.877l3.606 3.613-3.606 3.613c-3.278 3.285-3.614 3.638-3.693 3.877-0.191 0.581-0.064 1.126 0.364 1.553 0.427 0.428 0.972 0.555 1.553 0.364 0.239-0.079 0.592-0.415 3.877-3.693l3.613-3.606 3.613 3.606c3.285 3.278 3.638 3.614 3.877 3.693 0.581 0.191 1.126 0.064 1.553-0.364 0.428-0.427 0.555-0.972 0.364-1.553-0.079-0.239-0.415-0.592-3.693-3.877l-3.606-3.613 3.606-3.613c3.278-3.285 3.614-3.638 3.693-3.877 0.191-0.581 0.064-1.126-0.364-1.553-0.427-0.428-0.972-0.555-1.553-0.364-0.239 0.079-0.592 0.415-3.877 3.693l-3.613 3.606-3.613-3.606c-3.285-3.278-3.638-3.614-3.877-3.693-0.153-0.050-0.329-0.079-0.512-0.079-0.19 0-0.372 0.031-0.542 0.088l0.012-0.003z"></path>
</symbol>
<symbol id="newer" viewBox="0 0 32 32">
<path d="M6.053 1.365c-2.256 0.334-3.95 1.806-4.544 3.946-0.131 0.474-0.146 0.618-0.146 1.357 0 0.738 0.014 0.883 0.146 1.355 0.454 1.647 1.625 2.955 3.148 3.585l0.036 0.013c0.58 0.234 1.252 0.369 1.957 0.369 1.943 0 3.645-1.033 4.587-2.579l0.013-0.024c1.426-2.4 0.734-5.547-1.558-7.104-0.502-0.331-1.083-0.601-1.702-0.779l-0.045-0.011c-0.438-0.106-1.533-0.181-1.891-0.128zM7.178 4.058c1.046 0.192 1.92 1.083 2.106 2.149 0.32 1.846-1.331 3.45-3.16 3.067-0.811-0.194-1.472-0.721-1.841-1.425l-0.007-0.015c-0.169-0.338-0.267-0.736-0.267-1.158 0-0.736 0.301-1.402 0.787-1.88l0-0c0.47-0.488 1.128-0.792 1.858-0.792 0.186 0 0.367 0.020 0.541 0.057l-0.017-0.003zM14.192 5.424c-0.178 0.078-0.33 0.181-0.46 0.308l0-0c-0.242 0.239-0.391 0.571-0.391 0.938 0 0.512 0.292 0.956 0.718 1.175l0.007 0.003 0.253 0.125 4.587 0.027c4.574 0.027 4.587 0.027 4.8 0.142 0.646 0.349 0.898 1.080 0.586 1.704-0.074 0.149-0.187 0.32-0.254 0.382s-3.65 2.12-7.96 4.573c-7.629 4.158-10.284 5.699-12.931 7.252l4.806-2.605c-1.754 1.152-2.234 3.445-1.118 5.339 0.098 0.168 0.371 0.499 0.606 0.736 0.352 0.357 0.517 0.477 0.933 0.682 0.928 0.454 0.637 0.43 5.139 0.45 4.515 0.019 4.334 0.034 4.754-0.386 0.242-0.239 0.391-0.571 0.391-0.938 0-0.512-0.292-0.956-0.718-1.175l-0.007-0.003-0.253-0.125-3.92-0.027c-3.891-0.027-3.922-0.027-4.133-0.142-0.658-0.355-0.904-1.094-0.574-1.726 0.089-0.165 0.201-0.306 0.333-0.424l0.001-0.001c0.102-0.080 3.702-2.144 8-4.587 9.468-5.133 12.074-6.642 14.674-8.159l-6.701 3.61c1.781-1.205 2.258-3.454 1.139-5.357-0.186-0.275-0.386-0.516-0.606-0.736l-0-0c-0.257-0.284-0.568-0.514-0.917-0.674l-0.018-0.007c-0.939-0.461-0.546-0.43-5.838-0.443-4.158-0.011-4.72-0.003-4.928 0.072zM24.576 20.054c-0.867 0.147-1.639 0.466-2.31 0.922l0.020-0.013c-0.513 0.373-0.951 0.81-1.312 1.306l-0.012 0.017c-0.336 0.498-0.677 1.253-0.813 1.797-0.094 0.382-0.118 0.63-0.118 1.25 0 0.93 0.114 1.467 0.469 2.218 0.309 0.651 0.613 1.091 1.069 1.547 0.664 0.662 1.598 1.19 2.514 1.418 0.678 0.17 1.822 0.17 2.501 0 0.986-0.261 1.834-0.754 2.515-1.419l-0.001 0.001c0.662-0.664 1.19-1.598 1.418-2.514 0.17-0.678 0.17-1.822 0-2.501-0.261-0.986-0.754-1.834-1.419-2.515l0.001 0.001c-0.672-0.658-1.511-1.148-2.447-1.401l-0.039-0.009c-0.515-0.126-1.566-0.181-2.035-0.106zM25.877 22.726c1.209 0.279 2.1 1.335 2.123 2.604l0 0.003c0 1.44-1.227 2.667-2.667 2.667-1.438 0-2.666-1.227-2.666-2.667 0-1.197 0.875-2.307 2.045-2.59 0.35-0.085 0.806-0.091 1.165-0.016z"></path>
</symbol>
<symbol id="shower" viewBox="0 0 32 32">
<path d="M5.2 4.345c-0.029 0.010-0.117 0.033-0.196 0.050-0.186 0.041-0.452 0.268-0.561 0.478-0.112 0.215-0.113 0.705-0.002 0.914 0.047 0.088 0.722 0.794 1.499 1.57l1.414 1.41-0.175 0.243c-0.658 0.915-1.149 2.153-1.315 3.314-0.084 0.592-0.037 2.066 0.083 2.608 0.213 0.958 0.619 1.921 1.122 2.666l0.236 0.349-0.74 0.746c-0.407 0.411-0.771 0.807-0.808 0.88-0.088 0.173-0.088 0.683 0.001 0.854 0.1 0.193 0.273 0.372 0.45 0.464 0.173 0.090 0.562 0.114 0.805 0.051 0.116-0.030 2.045-1.924 6.977-6.852 3.749-3.745 6.855-6.882 6.902-6.97 0.109-0.206 0.11-0.699 0.002-0.907-0.109-0.195-0.269-0.35-0.461-0.452l-0.006-0.003c-0.171-0.089-0.681-0.089-0.854-0.001-0.073 0.037-0.469 0.401-0.88 0.808l-0.746 0.74-0.349-0.235c-0.727-0.492-1.747-0.922-2.665-1.123-0.545-0.12-2.020-0.167-2.609-0.083-1.161 0.166-2.399 0.657-3.314 1.315l-0.243 0.175-1.41-1.414c-0.776-0.777-1.47-1.445-1.544-1.484-0.14-0.074-0.523-0.143-0.613-0.111zM14.317 7.866c0.233 0.041 0.593 0.13 0.8 0.198 0.412 0.133 1.319 0.577 1.346 0.659 0.009 0.028-1.724 1.79-3.852 3.917-3.7 3.697-3.873 3.862-3.951 3.76-0.123-0.163-0.475-0.919-0.601-1.294-0.313-0.93-0.35-2.137-0.096-3.112 0.735-2.817 3.528-4.632 6.354-4.128zM21.2 12.345c-0.029 0.010-0.117 0.033-0.196 0.050-0.186 0.041-0.452 0.268-0.561 0.478-0.111 0.213-0.113 0.704-0.003 0.914 0.166 0.318 0.551 0.56 0.893 0.56s0.728-0.242 0.894-0.56c0.101-0.194 0.11-0.697 0.015-0.881-0.1-0.189-0.246-0.343-0.424-0.448l-0.005-0.003c-0.141-0.073-0.524-0.142-0.613-0.11zM26.533 13.678c-0.048 0.016-0.114 0.034-0.181 0.048l-0.015 0.003c-0.185 0.040-0.452 0.267-0.561 0.477-0.111 0.214-0.112 0.705-0.003 0.914 0.166 0.318 0.552 0.56 0.894 0.56s0.727-0.242 0.893-0.56c0.102-0.194 0.11-0.697 0.016-0.88-0.1-0.189-0.246-0.343-0.424-0.449l-0.005-0.003c-0.142-0.073-0.525-0.141-0.614-0.11zM17.2 16.345c-0.029 0.010-0.117 0.033-0.196 0.050-0.186 0.041-0.452 0.268-0.561 0.478-0.111 0.213-0.113 0.704-0.003 0.914 0.166 0.318 0.551 0.56 0.893 0.56s0.728-0.242 0.894-0.56c0.101-0.194 0.11-0.697 0.015-0.881-0.1-0.189-0.246-0.343-0.424-0.448l-0.005-0.003c-0.141-0.073-0.524-0.142-0.613-0.11zM22.533 17.678c-0.048 0.016-0.114 0.034-0.181 0.048l-0.015 0.003c-0.185 0.040-0.452 0.267-0.561 0.477-0.111 0.214-0.112 0.705-0.003 0.914 0.166 0.318 0.552 0.56 0.894 0.56s0.727-0.242 0.893-0.56c0.102-0.194 0.11-0.697 0.016-0.88-0.1-0.189-0.246-0.343-0.424-0.449l-0.005-0.003c-0.142-0.073-0.525-0.141-0.614-0.11zM13.2 20.345c-0.029 0.010-0.117 0.033-0.196 0.050-0.186 0.041-0.452 0.268-0.561 0.478-0.111 0.213-0.113 0.704-0.003 0.914 0.166 0.318 0.551 0.56 0.893 0.56s0.728-0.242 0.894-0.56c0.101-0.194 0.11-0.697 0.015-0.881-0.1-0.189-0.246-0.343-0.424-0.448l-0.005-0.003c-0.141-0.073-0.524-0.142-0.613-0.11zM18.533 21.678c-0.048 0.016-0.114 0.034-0.181 0.048l-0.015 0.003c-0.185 0.040-0.452 0.267-0.561 0.477-0.111 0.214-0.112 0.705-0.003 0.914 0.166 0.318 0.552 0.56 0.894 0.56s0.727-0.242 0.893-0.56c0.102-0.194 0.11-0.697 0.016-0.88-0.1-0.189-0.246-0.343-0.424-0.449l-0.005-0.003c-0.142-0.073-0.525-0.141-0.614-0.11zM14.533 25.678c-0.048 0.016-0.114 0.034-0.181 0.048l-0.015 0.003c-0.185 0.040-0.452 0.267-0.561 0.477-0.111 0.214-0.112 0.705-0.003 0.914 0.166 0.318 0.552 0.56 0.894 0.56s0.727-0.242 0.893-0.56c0.102-0.194 0.11-0.697 0.016-0.88-0.1-0.189-0.246-0.343-0.424-0.449l-0.005-0.003c-0.142-0.073-0.525-0.141-0.614-0.11z"></path>
</symbol>
<symbol id="Users" viewBox="0 0 32 32">
<path d="M20.8 5.259c-1.059 0.192-1.898 0.565-2.68 1.187-2.248 1.792-3.002 4.936-1.829 7.643 0.222 0.512 0.698 1.248 1.045 1.614l0.264 0.28-0.547 0.322c-1.58 0.93-2.856 2.222-3.742 3.766l-0.026 0.050c-0.235 0.414-0.794 1.701-0.898 2.066-0.11 0.392-0.106 1.208 0.010 1.65 0.197 0.739 0.61 1.445 1.125 1.915 0.334 0.307 1.090 0.698 1.571 0.816 0.238 0.058 1.467 0.072 6.427 0.072h6.133l0.4-0.125c1.139-0.355 1.963-1.066 2.458-2.115 0.264-0.562 0.336-0.957 0.304-1.666 0-0.003 0-0.007 0-0.010 0-0.396-0.083-0.773-0.233-1.115l0.007 0.018c-0.869-2.317-2.331-4.077-4.395-5.293-0.384-0.218-0.558-0.323-0.732-0.429l0.198 0.112c-0.011-0.008 0.077-0.122 0.195-0.251 0.768-0.834 1.285-1.882 1.514-3.074 0.098-0.515 0.083-2.013-0.027-2.514-0.517-2.362-2.112-4.141-4.274-4.771-0.408-0.118-0.605-0.142-1.307-0.157-0.118-0.005-0.256-0.008-0.394-0.008-0.199 0-0.397 0.006-0.593 0.017l0.027-0.001zM22.386 8.16c1.781 0.621 2.731 2.816 2.051 4.738-0.467 1.32-1.531 2.194-2.784 2.286-0.52 0.038-0.914-0.046-1.446-0.314-0.567-0.315-1.030-0.752-1.367-1.278l-0.009-0.015c-1.259-2.118-0.274-4.867 1.97-5.496 0.402-0.112 1.146-0.075 1.586 0.078zM8.027 9.045c-1.821 0.4-3.333 1.907-3.85 3.837-0.126 0.472-0.142 0.629-0.142 1.386 0 0.702 0.019 0.925 0.114 1.264 0.226 0.824 0.589 1.582 1.005 2.102l0.176 0.219-0.552 0.355c-1.317 0.854-2.359 2.030-3.028 3.42l-0.022 0.050c-0.478 1.008-0.514 1.957-0.112 2.946 0.301 0.739 1.010 1.512 1.702 1.854 0.667 0.328 0.973 0.357 3.709 0.338 2.618-0.018 2.611-0.016 2.965-0.352 0.282-0.267 0.379-0.526 0.379-0.997 0-0.49-0.11-0.763-0.41-1.016-0.349-0.293-0.326-0.291-2.922-0.291-2.658 0-2.618 0.005-2.922-0.341-0.214-0.245-0.218-0.387-0.016-0.875 0.509-1.265 1.458-2.264 2.654-2.825l0.032-0.014c0.632-0.301 1.165-0.422 2.091-0.482 1.24-0.077 1.92-0.264 2.752-0.755 0.456-0.269 1.272-1.048 1.579-1.509 1.454-2.174 1.142-5.027-0.758-6.933-0.576-0.591-1.293-1.042-2.097-1.299l-0.036-0.010c-0.496-0.158-1.731-0.198-2.293-0.074zM9.541 11.79c0.661 0.152 1.333 0.698 1.645 1.334 0.946 1.926-0.685 4.109-2.682 3.594-1.49-0.386-2.261-2.179-1.563-3.638 0.458-0.963 1.589-1.523 2.6-1.29zM22.722 17.842c1.346 0.219 2.664 0.923 3.733 1.995 0.632 0.637 1.046 1.221 1.437 2.034 0.301 0.626 0.336 0.898 0.181 1.357-0.12 0.35-0.554 0.795-0.856 0.875-0.158 0.043-1.845 0.056-5.84 0.045-5.549-0.014-5.618-0.014-5.802-0.123-0.358-0.21-0.693-0.896-0.619-1.27 0.090-0.45 0.632-1.509 1.088-2.126 0.789-1.042 1.823-1.858 3.019-2.37l0.048-0.018c0.73-0.316 1.58-0.499 2.473-0.499 0.402 0 0.796 0.037 1.178 0.109l-0.039-0.006z"></path>
</symbol>
<symbol id="ac" viewBox="0 0 32 32">
<path d="M14.408 3.282c-2.717 0.477-4.776 2.51-5.317 5.25-0.050 0.248-0.078 0.576-0.066 0.73 0.056 0.675 0.781 1.066 1.414 0.76 0.336-0.163 0.475-0.411 0.634-1.122 0.229-1.034 0.584-1.718 1.227-2.371 0.859-0.874 2.003-1.333 3.272-1.318 0.013-0 0.028-0 0.043-0 0.696 0 1.352 0.173 1.926 0.478l-0.022-0.011c1.715 0.835 2.726 2.768 2.406 4.602-0.306 1.754-1.445 3.018-3.218 3.574l-0.469 0.147-15.581 0.053-0.216 0.144c-0.263 0.179-0.433 0.477-0.433 0.815 0 0.381 0.217 0.711 0.533 0.874l0.005 0.003 0.237 0.115 15.562-0.030 0.626-0.17c2.683-0.726 4.573-2.922 4.845-5.63 0.017-0.172 0.027-0.372 0.027-0.574 0-1.001-0.237-1.946-0.657-2.783l0.016 0.036c-0.884-1.789-2.516-3.093-4.476-3.515l-0.043-0.008c-0.552-0.12-1.722-0.144-2.277-0.046zM26.373 12.091c-2.078 0.282-3.77 1.787-4.243 3.776-0.141 0.594-0.16 1.323-0.040 1.546 0.176 0.331 0.518 0.552 0.912 0.552 0.164 0 0.32-0.038 0.457-0.107l-0.006 0.003c0.352-0.171 0.496-0.427 0.555-0.992 0.088-0.827 0.299-1.322 0.794-1.85 0.554-0.592 1.181-0.899 1.971-0.968 1.394-0.12 2.768 0.848 3.117 2.197 0.394 1.526-0.478 3.046-2.050 3.573-0.282 0.094-0.85 0.101-13.733 0.126-12.611 0.024-13.451 0.032-13.61 0.118-0.643 0.352-0.656 1.269-0.024 1.698l0.194 0.13 10.186 0.027c7.27 0.019 10.234 0.045 10.347 0.086 0.685 0.253 1.237 0.714 1.51 1.258 0.75 1.496-0.178 3.264-1.853 3.523-1.314 0.203-2.542-0.661-2.846-2.003-0.098-0.432-0.288-0.704-0.592-0.842-0.653-0.298-1.419 0.166-1.419 0.859 0 0.546 0.328 1.442 0.758 2.070 0.576 0.842 1.568 1.522 2.629 1.802 0.568 0.15 1.723 0.138 2.293-0.026 2.749-0.784 4.101-3.738 2.851-6.23l-0.245-0.49 1.736-0.021c1.669-0.021 1.758-0.027 2.254-0.16 1.709-0.456 3.038-1.749 3.536-3.403l0.009-0.035c0.13-0.426 0.144-0.547 0.144-1.322 0-0.778-0.014-0.896-0.147-1.334-0.549-1.823-2.063-3.189-3.933-3.516l-0.030-0.004c-0.273-0.044-0.587-0.069-0.908-0.069-0.203 0-0.403 0.010-0.601 0.030l0.025-0.002z"></path>
</symbol>
<symbol id="heart" viewBox="0 0 32 32">
<path d="M8.96 2.488c-1.336 0.063-2.575 0.421-3.673 1.008l0.046-0.023c-2.539 1.311-4.248 3.707-4.699 6.58-0.087 0.549-0.087 2.011 0 2.56 0.242 1.568 0.855 2.96 1.747 4.129l-0.016-0.022c0.4 0.537 12.481 12.651 12.86 12.896 0.252 0.161 0.292 0.171 0.775 0.171s0.523-0.009 0.775-0.171c0.379-0.245 12.46-12.359 12.86-12.896 0.875-1.147 1.488-2.539 1.725-4.056l0.007-0.051c0.088-0.549 0.087-2.071-0.001-2.587-0.511-2.996-2.221-5.324-4.885-6.655-1.211-0.604-2.445-0.88-3.92-0.876-2.349 0.007-4.435 0.853-6.12 2.484l-0.44 0.425-0.44-0.425c-1.769-1.712-4.184-2.624-6.6-2.492zM10.88 5.731c1.207 0.335 1.821 0.733 3.173 2.057 0.557 0.545 1.109 1.051 1.227 1.121 0.187 0.115 0.277 0.131 0.72 0.131s0.533-0.016 0.72-0.129c0.117-0.072 0.669-0.577 1.227-1.124 1.356-1.331 1.961-1.72 3.2-2.064 0.491-0.136 0.609-0.148 1.467-0.147 0.987 0 1.175 0.031 2 0.324 1.345 0.479 2.535 1.555 3.176 2.873 0.811 1.665 0.811 3.455 0 5.12-0.143 0.293-0.385 0.701-0.539 0.907s-2.748 2.845-5.765 5.867l-5.485 5.493-5.485-5.493c-3.017-3.021-5.612-5.661-5.765-5.867-0.186-0.26-0.365-0.557-0.521-0.867l-0.018-0.039c-0.381-0.746-0.605-1.627-0.605-2.56s0.224-1.814 0.62-2.592l-0.015 0.032c0.756-1.552 2.135-2.652 3.869-3.087 0.5-0.125 0.588-0.132 1.467-0.113 0.693 0.015 0.908 0.040 1.333 0.157z"></path>
</symbol>
<symbol id="petrol" viewBox="0 0 32 32">
<path d="M7.573 4.035c-1.083 0.204-1.93 1.021-2.177 2.069l-0.004 0.019c-0.042 0.2-0.059 3.403-0.059 11.080v10.797h13.334v-9.973h1.966l0.021 3.586c0.021 3.978 0.005 3.787 0.389 4.563 0.662 1.341 2.262 2.086 3.704 1.725 0.682-0.171 1.078-0.395 1.579-0.888 0.354-0.347 0.474-0.51 0.648-0.88 0.381-0.805 0.358-0.322 0.358-7.813 0-7.574 0.027-7.032-0.382-7.867-0.186-0.376-0.349-0.552-2.88-3.093l-2.682-2.693-0.707 0.706-0.707 0.707 2.814 2.816-0.288 0.147c-0.782 0.399-1.375 1.074-1.659 1.893l-0.007 0.023c-0.299 0.925-0.168 2.010 0.338 2.792 0.301 0.466 0.552 0.723 0.997 1.021 0.516 0.344 1.15 0.549 1.832 0.549 0.37 0 0.726-0.060 1.059-0.172l-0.023 0.007 0.299-0.101-0.029 9.984-0.117 0.218c-0.419 0.782-1.419 0.981-2.054 0.406-0.125-0.118-0.233-0.251-0.322-0.398l-0.005-0.008c-0.115-0.216-0.117-0.251-0.144-3.685-0.027-3.422-0.029-3.47-0.147-3.782-0.296-0.786-0.83-1.318-1.638-1.63-0.28-0.109-0.438-0.128-1.267-0.149l-0.946-0.022v-4.81c0-4.144-0.011-4.854-0.082-5.128-0.232-0.904-0.8-1.534-1.706-1.896l-0.32-0.128-4.427-0.008c-0.407-0.002-0.888-0.004-1.369-0.004-1.122 0-2.242 0.007-3.361 0.021l0.17-0.002zM16 10v3.333h-8v-6.666h8v3.333zM24.621 10.832c0.419 0.227 0.698 0.663 0.698 1.164 0 0.106-0.012 0.209-0.036 0.307l0.002-0.009c-0.138 0.592-0.661 1.027-1.286 1.027-0.364 0-0.693-0.147-0.932-0.386v0c-0.243-0.238-0.393-0.57-0.393-0.937s0.15-0.697 0.392-0.935l0-0c0.24-0.239 0.57-0.386 0.935-0.386 0.227 0 0.441 0.057 0.627 0.158l-0.007-0.003zM16 20.667v4.666h-8v-9.333h8v4.667z"></path>
</symbol>
<symbol id="telewision" viewBox="0 0 32 32">
<path d="M9.542 1.241c-0.28 0.189-0.422 0.439-0.422 0.744 0 0.144 0.027 0.314 0.059 0.379s1.093 1.152 2.356 2.419l2.298 2.304-6.553 0.038-0.51 0.139c-0.909 0.243-1.686 0.717-2.291 1.355l-0.002 0.002c-0.568 0.581-0.991 1.306-1.208 2.115l-0.008 0.034-0.141 0.51v5.68c0 5.339 0.006 5.705 0.099 6.101 0.414 1.767 1.658 3.092 3.421 3.642l0.48 0.15h17.76l0.48-0.15c1.953-0.609 3.263-2.174 3.492-4.17 0.043-0.378 0.056-2.096 0.042-5.893-0.019-5.338-0.020-5.362-0.138-5.808-0.133-0.503-0.444-1.202-0.707-1.588-0.639-0.936-1.686-1.673-2.819-1.98l-0.51-0.139-6.553-0.038 2.298-2.304c1.263-1.267 2.324-2.355 2.356-2.419s0.059-0.235 0.059-0.379c0-0.001 0-0.002 0-0.003 0-0.476-0.386-0.862-0.862-0.862-0.001 0-0.002 0-0.003 0h0c-0.144 0-0.314 0.027-0.379 0.059-0.064 0.032-1.358 1.298-2.876 2.813l-2.76 2.754-2.76-2.754c-1.518-1.515-2.812-2.781-2.876-2.813-0.205-0.104-0.622-0.072-0.822 0.062zM24.741 8.989c1.070 0.252 2.018 1.2 2.27 2.27 0.122 0.515 0.122 11.015 0.001 11.49-0.144 0.565-0.383 0.978-0.821 1.417-0.363 0.385-0.825 0.673-1.346 0.824l-0.021 0.005c-0.302 0.094-0.722 0.098-8.824 0.098s-8.522-0.004-8.824-0.098c-1.094-0.337-1.916-1.182-2.188-2.246-0.121-0.475-0.121-10.975 0.001-11.49 0.25-1.064 1.19-2.012 2.245-2.268 0.485-0.117 17.010-0.119 17.507-0.002zM11.573 29.218c-0.232 0.136-0.4 0.361-0.458 0.627l-0.001 0.006c-0.077 0.411 0.254 0.934 0.634 1.002 0.095 0.017 2.068 0.024 4.385 0.016l4.214-0.016 0.179-0.128c0.201-0.143 0.378-0.483 0.378-0.725s-0.177-0.582-0.378-0.725l-0.179-0.128-4.294-0.014c-4.102-0.014-4.301-0.010-4.48 0.085z"></path>
</symbol>
</defs>
</svg>
